<?xml version="1.0" encoding="UTF-8"?>
<svg id="Layer_2" data-name="Layer 2" xmlns="http://www.w3.org/2000/svg" viewBox="0 0 40 40">
  <defs>
    <style>
      .cls-1 {
        fill: #fff;
      }

      .cls-2 {
        fill: #006bde;
      }
    </style>
  </defs>
  <g id="Layer_1-2" data-name="Layer 1">
    <g>
      <rect class="cls-2" width="40" height="40" rx="4" ry="4"/>
      <path id="symbol01" class="cls-1" d="M20,15.06c1.12,0,2.39.97,2.39,2.31,0,.76-.24,1.34-.6,1.87-.23.34-.4.73-.47,1.01-.08.32-.25,1.09.7,1.11.62.02,2.13-.52,3.36-2,.94-1.19,1.5-2.69,1.5-4.33,0-3.83-3.08-6.94-6.88-6.94s-6.89,3.11-6.89,6.94c0,1.64.56,3.14,1.5,4.33,1.23,1.48,2.74,2.01,3.36,2,.95-.01.78-.79.7-1.11-.07-.28-.24-.67-.47-1.01-.35-.53-.6-1.12-.6-1.87,0-1.34,1.27-2.31,2.4-2.31M32.18,22.08c-.28-.23-.78-.57-1.79-.73-1.41-.21-2.67.12-3.43.42-1,.39-2.22,1.29-3.07,2.46-.89,1.23-1.36,3.1-.91,5.04.13.55.26.85.46,1.24.26.52.96,1.25,1.57,1.38.48.1.86-.18,1.05-.39,1.23-1.43,5.9-6.95,6.4-7.66.5-.7.17-1.37-.28-1.75M13.04,21.77c-.76-.3-2.01-.63-3.42-.42-1.02.16-1.52.5-1.79.73-.46.38-.78,1.05-.28,1.75.5.71,5.17,6.23,6.4,7.66.19.21.56.49,1.05.39.61-.13,1.31-.86,1.57-1.38.21-.38.34-.69.47-1.24.44-1.94-.03-3.8-.91-5.04-.85-1.17-2.08-2.06-3.07-2.46"/>
    </g>
  </g>
</svg>