<?xml version="1.0" encoding="UTF-8"?>
<svg id="Layer_2" data-name="Layer 2" xmlns="http://www.w3.org/2000/svg" viewBox="0 0 40 40">
  <defs>
    <style>
      .cls-1 {
        fill: #0f0b0b;
      }

      .cls-2 {
        fill: #fff;
      }

      .cls-3 {
        fill: #86bc24;
      }
    </style>
  </defs>
  <g id="Layer_1-2" data-name="Layer 1">
    <g>
      <rect class="cls-1" width="40" height="40" rx="4" ry="4"/>
      <g>
        <path class="cls-3" d="M27.19,26.37c0-1.75,1.42-3.18,3.18-3.18s3.18,1.42,3.18,3.18-1.42,3.18-3.18,3.18-3.18-1.42-3.18-3.18"/>
        <path class="cls-2" d="M21.13,19.78c0-1.76-.34-3.07-1.02-3.92-.68-.85-1.72-1.28-3.1-1.28h-1.48v10.78h1.13c1.54,0,2.67-.46,3.39-1.38.72-.92,1.08-2.32,1.08-4.21M26.4,19.59c0,3.21-.86,5.69-2.59,7.42-1.73,1.74-4.15,2.61-7.28,2.61h-6.08V10.38h6.5c3.02,0,5.35.79,6.99,2.37,1.64,1.58,2.46,3.86,2.46,6.85"/>
      </g>
    </g>
  </g>
</svg>