<?xml version="1.0" encoding="UTF-8"?>
<svg id="Layer_2" data-name="Layer 2" xmlns="http://www.w3.org/2000/svg" viewBox="0 0 40 40">
  <defs>
    <style>
      .cls-1 {
        fill: #ed1a3b;
      }

      .cls-1, .cls-2 {
        fill-rule: evenodd;
      }

      .cls-2, .cls-3 {
        fill: #fff;
      }

      .cls-4 {
        fill: #001648;
      }
    </style>
  </defs>
  <g id="Layer_1-2" data-name="Layer 1">
    <g>
      <rect class="cls-4" width="40" height="40" rx="4" ry="4"/>
      <g>
        <path class="cls-1" d="M16.77,12.97c-.04-.07-1.04-2.2-.66-3.08.54-.64,1.39-1.36,2.88-.47.22.13.44.23.67.32l-.15.9.4.39.39-.4.13-.32-.1-.59s.86-.36,1.13-.49c.73-.2,2.09-.28,2.3.65.09,1,.07,1.66-.02,1.8-.09.15-.59,1.19-.59,1.19l-.86.29s-.7-.77-.73-.78c-.03,0-.86.33-.85.3,0-.04-.77-.52-.77-.52l-.64.5s-.95-.35-1.01-.32c-.06.03-.65.8-.65.8l-.89-.17Z"/>
        <path class="cls-2" d="M17.49,14.66c.74-.49,1.6-.74,2.49-.74s1.75.26,2.49.74c.03.02.06.03.09.03.04,0,.07-.01.1-.03.03-.02.05-.05.06-.09.01-.04,0-.07,0-.11-.01-.03-.04-.06-.07-.08-.79-.52-1.72-.79-2.66-.79s-1.87.28-2.66.79c-.03.03-.06.06-.06.1,0,.04,0,.08.02.12.02.04.06.06.1.07s.08,0,.12-.01h0Z"/>
        <path class="cls-2" d="M19.85,20v-1.42c-.11-.02-.2-.05-.28-.07l-.09-.02c-.17-.05-.34-.11-.5-.19v1.11c.12.11.26.2.4.28.14.08.28.17.41.28l.05.04Z"/>
        <path class="cls-2" d="M18.98,21.56v3.4c.09.05.18.1.26.17.21.15.42.32.61.5v-1.8s0-.07.02-.1c.02-.03.05-.05.08-.06.05-.01.1-.02.15-.02h.22c.2,0,.4,0,.59-.02.03,0,.05,0,.08,0-.01-.02-.02-.04-.04-.06l-.04-.06-.08-.12c-.06-.07-.11-.15-.18-.22l-.03-.03c-.28,0-.53-.01-.66-.02-.03,0-.06-.02-.08-.04-.02-.02-.03-.05-.03-.09v-.55c-.31-.26-.6-.55-.87-.87Z"/>
        <path class="cls-2" d="M18.98,27.02v.51s0,.08-.01.13c-.01.04,0,.08-.02.12s-.01.08-.02.12c0,.04-.02.08-.03.12-.01.04-.02.08-.04.12-.02.04-.03.08-.05.12-.02.04-.04.08-.06.12-.01.02-.03.05-.04.07-.02.02-.03.05-.05.07-.02.03-.04.07-.04.11,0,.04.01.08.04.11.03.03.06.05.1.06.04.01.08.02.12.01.13,0,.26.02.39.04.13.02.25.05.38.08.12.03.24.07.36.11.05.02.1.04.16.05.03,0,.06,0,.09,0,.03,0,.05-.02.08-.04.04-.03.07-.07.08-.11,0-.02.01-.05.01-.08,0-.06-.02-.11-.05-.16-.01-.02-.02-.04-.04-.07l-.05-.07s-.03-.05-.05-.07c-.02-.02-.03-.05-.05-.07l-.05-.08s-.04-.06-.05-.09c-.02-.03-.03-.06-.05-.1-.02-.03-.03-.07-.05-.11-.02-.04-.03-.08-.04-.12-.01-.04-.02-.09-.03-.14s-.02-.1-.02-.15c0-.05-.01-.11-.01-.17v-.15c-.28-.16-.55-.33-.83-.5l-.04-.03v.17Z"/>
        <path class="cls-2" d="M17.48,24.74l.13-.02c.09-.01.18-.02.28-.02v-.62c-.07.04-.22.14-.4.27,0,.15,0,.27,0,.4Z"/>
        <path class="cls-2" d="M18.14,26.8c-.05-.04-.1-.08-.14-.14-.08-.14-.13-.29-.13-.45-.13-.06-.26-.11-.4-.16v.17c0,.15-.05.31-.13.44-.05.07-.12.13-.19.18-.13.1-.29.2-.29.38,0,.04.01.09.03.13.02.04.05.08.08.1.04.03.09.05.14.06.05,0,.1,0,.15,0,.11-.03.23-.05.35-.06.1,0,.19,0,.29.02.09.03.18.04.28.05.08,0,.15-.03.21-.09.05-.05.09-.13.09-.21,0-.06-.03-.12-.06-.17-.03-.05-.07-.09-.12-.13-.05-.04-.1-.09-.15-.13Z"/>
        <path class="cls-2" d="M15.8,18.34s.02.08.04.12c.13.3.52.53.81.29.04-.04.08-.08.1-.13.02-.05.04-.1.04-.16,0-.09-.03-.17-.08-.24-.05-.07-.13-.12-.21-.14-.08-.02-.17-.01-.25.03-.08.04-.14.1-.18.18-.07-.12-.09-.25-.06-.38.06-.23.21-.43.41-.55.29-.19.64-.27.98-.21.41.04.77.26,1.11.49.17.12.35.23.53.34.22.11.46.2.7.26.44.11.9.16,1.36.13.25-.01.68-.1.62,0-.28.49-.87.93-1.35,1.41l-.18.17v.36c.13.12.25.25.36.39.8-1.05,1.42-2.02,2.5-2.95.02-.02.03-.04.04-.07s0-.05,0-.08c-.01-.02-.03-.04-.05-.05-.02-.01-.05-.01-.08,0-.43.1-.98.24-1.45.19-1.67-.13-3.01-1.75-4.86-.8-.47.24-.86.73-.84,1.28,0,.05.01.1.03.14Z"/>
        <path class="cls-2" d="M22.93,27.02c.09-.23.11-.49.05-.73,0,0,0,0,0-.01,0-.01,0-.02-.01-.03-.03-.08-.09-.15-.16-.21-.07-.05-.16-.09-.25-.09-.09,0-.18,0-.26.05-.08.04-.15.1-.2.17s-.08.16-.08.25c0,.09.02.18.06.26.04.08.11.15.18.19.08.05.17.07.26.07.06,0,.12-.01.18-.03.01.06,0,.12-.02.18-.03.06-.08.11-.14.16-.06.04-.12.07-.19.09-1.35.5-1.9-.93-3.29-1.93-.2-.15-.42-.26-.66-.32-.24-.06-.49-.07-.73-.03-.48.07-1.08.29-1.34.22-.01,0-.02,0-.03-.02,0,0-.02-.02-.02-.03,0-.01,0-.02,0-.03s0-.02,0-.03c.04-.09.09-.18.15-.26.06-.08.12-.16.18-.23.06-.07.14-.14.2-.21.07-.07.15-.14.22-.2s.16-.13.24-.19l.24-.18.25-.17c.09-.06.18-.13.27-.19.12-.09.24-.18.36-.28.08-.06.15-.14.22-.2l.06-.07v-1.51s-.06.07-.09.1c-.74.78-1.5,1.98-2.09,2.82-.35.49-.64.85-.74.97-.03.03-.04.07-.05.11,0,.03,0,.06.01.09.01.03.03.05.05.07.02.02.05.03.08.04s.06,0,.09,0c2.33-.59,3.73,2.01,5.94,1.98.4,0,.86-.2,1.05-.62Z"/>
        <path class="cls-2" d="M22.71,19.82c.11-.11.3-.18.3-.36,0-.05-.01-.09-.04-.13-.03-.04-.06-.07-.11-.09-.04-.02-.08-.02-.12-.02l-.19.02c-.13,0-.27,0-.4,0h-.1s-.03,0-.04,0c-.01,0-.02.01-.03.02l-.18.22c-.07.09-.01.18.06.24.07.07.12.09.17.14.14.14.1.38.1.56v2.06c.1-.05.2-.11.28-.19.05-.05.1-.09.15-.14v-2.04c0-.06.01-.11.04-.16.02-.05.06-.1.1-.14Z"/>
        <path class="cls-2" d="M21.91,23.69c-.69-1.19-1.08-2.51-2.31-3.48-.53-.42-1.26-.52-1.21-1.64,0-.13-.21-.02-.53-.02-.28,0-.4-.05-.68-.04-.03,0-.06,0-.09.02-.02.01-.04.03-.06.05-.02.02-.03.05-.03.08,0,.03,0,.06,0,.08.02.06.06.12.12.15.06.04.13.09.19.14.05.03.09.07.12.12.04.06.05.12.05.19v3.04c.13-.18.26-.35.4-.51v-.38c0-.66-.04-1.85.12-1.84.28.02.64,1.36,2.11,2.57.59.49,1.29,1.17,1.67,2.33.11.34.16.75.24,1.07,0,.01.01.03.02.04,0,.01.02.02.03.03.01,0,.03,0,.04.01.01,0,.03,0,.04,0,.11-.05.23-.08.36-.08.02,0,.05,0,.07,0v-2.05s0-.02,0-.02c0,0,0-.01-.02-.02,0,0-.01,0-.02,0,0,0-.02,0-.02,0-.09.04-.38.15-.38.15v.12h-.02s-.08,0-.12-.02c-.04-.02-.07-.05-.09-.08Z"/>
        <path class="cls-2" d="M24.69,19.42c0-1.28-.36-2.23-.67-2.69-1.08-1.57-2.89-1.69-4.91-1.55-.32.02-.83.14-.84.31-.02.3.73.27.72.7v.34c.3.1.59.23.87.35.02-.26.11-.51.27-.72s.36-.38.6-.48c.59-.21,1.42-.12,1.92.22.6.41.87,1.43.89,2.2.04,1.69.34,3.3-.93,4.4-.12.1-.25.18-.38.25l-.18.09c-.06.03-.13.05-.19.07.08.15.15.3.23.44.01.02.02.03.03.05.14-.04.27-.1.39-.17,1.41-.71,2.18-1.93,2.18-3.8Z"/>
        <path class="cls-3" d="M18.39,33.35l.61.22s.06-.14.06-.14c.04-.07.08-.15.12-.22.07-.1.14-.2.22-.29.08-.09.17-.17.25-.26l.02-.02h.03c.2.06.41.06.61,0h.03s.02.01.02.01c.08.08.16.15.23.24.09.1.16.2.23.31.05.07.09.14.12.22.02.04.04.09.06.14.07-.03.15-.06.23-.08l.34-.12s.03-.01.05-.02l-.02-.03c-.11-.17-.23-.32-.38-.45-.17-.16-.37-.3-.57-.41l.03-.05c.07-.09.1-.2.1-.31,0-.07-.01-.14-.04-.21s-.07-.13-.11-.18-.11-.09-.17-.12c-.07-.03-.14-.04-.21-.04h-.48c-.1,0-.19.03-.28.09-.08.05-.15.13-.19.22-.04.09-.06.19-.06.28,0,.1.04.19.09.27l.03.05c-.21.11-.4.25-.57.4-.16.14-.3.3-.4.48Z"/>
        <path class="cls-3" d="M19.21,31.64c.08-.1.19-.18.31-.22l-.04-.07v-.02c-.08-.12-.11-.26-.09-.4,0-.06.03-.11.08-.14.04-.04.1-.06.15-.05.26-.02.51-.02.77,0,.06,0,.11.02.15.05.04.04.07.09.08.14.02.14-.01.28-.08.4v.02s-.05.07-.05.07c.12.05.22.12.31.22.19-.14.53-.44.52-.8,0-.1-.04-.2-.1-.28-.06-.08-.15-.13-.25-.16-.18-.04-.36-.05-.54-.03-.28.02-.55.02-.83,0-.18-.02-.36-.01-.54.03-.1.02-.19.08-.25.16-.06.08-.1.18-.1.28-.01.36.33.67.52.8Z"/>
        <path class="cls-3" d="M19.1,32.4c-.07-.16-.08-.34-.03-.51-.35-.05-.69-.14-1.03-.26-.43-.15-.83-.35-1.21-.59.18-.11.41-.46.61-.92.25-.59.32-1.13.15-1.2-.17-.07-.5.35-.75.94-.15.32-.23.67-.24,1.02-.17-.12-.34-.24-.5-.37-.04-.03-.07-.06-.11-.1.18-.09.44-.42.66-.86.28-.56.38-1.08.22-1.16-.16-.08-.51.32-.79.88-.16.3-.27.63-.3.97-.17-.15-.33-.31-.49-.48.18-.09.46-.39.7-.79.32-.53.46-1.04.31-1.13-.15-.09-.53.28-.85.81-.17.27-.3.57-.36.89-.16-.18-.31-.37-.46-.57.19-.07.48-.33.75-.68.37-.48.55-.95.42-1.05-.13-.1-.54.2-.91.68-.19.24-.34.51-.44.8-.13-.19-.25-.38-.37-.58.18-.03.49-.28.79-.64.37-.45.57-.9.44-1-.13-.1-.53.18-.89.62-.21.23-.37.51-.46.8-.12-.21-.23-.43-.33-.65.18-.02.5-.24.81-.56.39-.41.62-.83.51-.94-.11-.11-.53.14-.92.54-.21.21-.38.45-.51.72-.02-.05-.04-.1-.06-.14-.07-.16-.13-.31-.19-.48.17-.01.5-.22.82-.53.4-.39.64-.79.53-.91-.11-.11-.52.11-.92.5-.21.19-.39.42-.52.68-.07-.19-.13-.38-.19-.57.19-.03.49-.21.8-.48.42-.37.69-.76.58-.88-.11-.12-.53.08-.95.45-.2.17-.38.36-.52.58-.06-.2-.1-.41-.15-.62.18,0,.5-.17.83-.43.42-.33.69-.7.6-.82-.09-.12-.51.06-.94.39-.21.16-.39.35-.54.57-.03-.18-.07-.36-.09-.54.18-.01.5-.19.83-.46.42-.35.69-.74.59-.86-.1-.12-.52.07-.95.43-.2.16-.37.34-.52.55-.03-.22-.05-.44-.07-.65.19-.02.5-.19.83-.44.44-.35.72-.73.62-.85-.1-.12-.53.06-.97.4-.19.14-.36.31-.51.49-.01-.25-.02-.51-.01-.76.18.01.51-.11.85-.32.44-.28.71-.58.61-.7s-.52,0-.96.28c-.18.11-.35.25-.5.4,0-.23.02-.47.04-.7.28-.03.55-.12.79-.27.44-.24.75-.54.68-.67-.07-.12-.48-.03-.93.22-.19.1-.36.22-.52.36.03-.24.06-.48.1-.72.27,0,.54-.08.78-.21.44-.2.75-.47.69-.59-.06-.12-.46-.06-.9.15-.18.08-.35.18-.51.31.06-.28.12-.57.19-.85.25.02.51-.02.74-.12.41-.15.72-.36.69-.48-.03-.12-.41-.09-.83.05-.18.06-.35.14-.51.25.02-.06.03-.11.04-.16.06-.18.12-.37.18-.55.11.06.39.05.71-.04.39-.1.69-.28.66-.38-.03-.11-.37-.12-.76-.02-.18.04-.36.11-.52.21.1-.26.2-.51.32-.76.2.07.42.09.63.05.36-.04.65-.16.64-.26-.01-.1-.32-.15-.68-.11-.17.02-.34.06-.5.12.12-.24.24-.47.37-.69.17.09.36.13.55.12.33,0,.6-.06.6-.15,0-.09-.26-.17-.59-.18-.16,0-.32.01-.47.05.13-.22.27-.43.42-.64.06.06.26.12.5.13.29.01.53-.04.53-.12,0-.08-.23-.16-.52-.17-.14,0-.28,0-.41.04.06-.08.12-.17.19-.25.12-.01.35-.16.56-.38.28-.28.43-.56.35-.64s-.36.09-.63.36c-.22.23-.36.45-.37.57-.07.08-.14.16-.19.24.02-.14.01-.27,0-.41-.04-.29-.14-.51-.23-.5-.09.01-.11.26-.06.54.04.26.12.46.2.49-.14.19-.28.38-.41.58-.02-.13-.06-.26-.11-.39-.12-.31-.29-.53-.37-.49-.09.03-.06.31.06.61.06.18.16.34.29.47-.14.22-.26.44-.38.67-.04-.15-.1-.29-.18-.43-.18-.32-.4-.54-.49-.49-.09.05-.02.35.16.67.09.18.22.34.39.47-.11.23-.22.46-.32.7-.07-.15-.16-.3-.26-.43-.25-.32-.52-.53-.61-.46-.09.07.04.39.28.71.13.18.29.33.48.44-.08.2-.15.4-.22.6-.02.07-.04.14-.07.22-.09-.18-.21-.34-.34-.48-.3-.33-.62-.53-.71-.44-.09.08.08.41.38.75.16.19.36.35.59.45-.08.28-.15.55-.2.83-.12-.18-.26-.35-.42-.49-.36-.32-.72-.5-.81-.4-.09.1.13.44.49.77.19.2.43.34.69.43-.05.28-.1.56-.13.84-.15-.18-.32-.34-.51-.47-.42-.31-.83-.46-.92-.34-.09.12.19.46.61.77.23.18.49.31.78.38-.02.25-.04.5-.05.76-.17-.2-.37-.37-.58-.5-.46-.3-.9-.44-.99-.31-.08.13.22.48.68.78.36.23.7.37.88.36,0,.25,0,.5,0,.75v.04c-.19-.19-.42-.36-.66-.48-.51-.28-.98-.38-1.05-.24-.08.14.28.48.78.75.4.21.77.33.95.3.01.24.03.47.06.71-.23-.16-.49-.28-.76-.35-.55-.17-1.04-.18-1.09-.03-.05.15.36.41.92.59.41.13.78.17.97.11.03.19.06.39.09.58-.26-.14-.54-.23-.83-.26-.57-.09-1.05-.04-1.07.12-.03.16.41.36.98.45.43.07.81.06.98-.02,0,.02,0,.04,0,.06.04.2.09.41.14.61-.28-.13-.58-.2-.89-.21-.58-.04-1.06.05-1.07.21-.01.16.45.33,1.03.38.46.03.85-.02,1.01-.12.06.2.12.41.19.61-.29-.08-.59-.1-.89-.08-.6.03-1.08.19-1.07.36,0,.17.5.28,1.11.25.43-.02.8-.11.97-.22.06.16.12.31.19.47.02.05.04.09.06.14-.31-.06-.62-.06-.93,0-.6.09-1.06.29-1.04.46.02.17.53.23,1.12.15.44-.06.82-.19.97-.33.1.21.2.43.32.63-.32-.04-.64-.01-.95.07-.59.14-1.04.39-1,.55s.55.19,1.14.05c.45-.1.81-.28.95-.41.14.23.28.46.43.68-.19-.06-.59-.03-1.03.11-.58.17-1.01.45-.96.61.05.16.55.15,1.13-.02.51-.15.9-.38.95-.54.17.24.35.47.54.69-.21-.04-.6.02-1.02.17-.59.21-1.01.51-.95.68.06.16.58.13,1.17-.08.51-.18.89-.43.95-.6.17.18.35.36.53.53-.33.05-.64.17-.93.34-.56.31-.95.69-.86.84.09.15.61.04,1.17-.28.43-.23.76-.51.85-.7l.11.1c.14.12.3.23.45.34-.33.08-.65.23-.92.43-.53.36-.88.77-.78.92.1.15.61-.02,1.14-.38.43-.29.74-.62.79-.81.43.28.9.51,1.38.69.27.1.55.18.83.23-.29.05-.58.11-.78.15l-.16.03s-.05.02-.06.04c-.02.02-.02.05-.02.07v.1s.02.03.02.04.02.02.03.03c.01,0,.02.01.04.02.01,0,.03,0,.04,0l.17-.03c.23-.05.58-.11.92-.17.05-.04.11-.08.17-.12Z"/>
        <path class="cls-3" d="M28.47,24.16c-.29.04-.57.13-.83.26.03-.19.07-.39.09-.58.19.05.56.01.97-.11.55-.17.97-.43.92-.59-.05-.16-.53-.14-1.09.03-.27.08-.53.19-.76.35.03-.24.05-.47.06-.71.18.03.55-.08.95-.3.51-.28.85-.61.78-.75-.08-.14-.55-.03-1.06.24-.24.12-.46.28-.66.48v-.79c.18.01.52-.12.88-.36.46-.3.76-.65.68-.78-.08-.13-.53.01-.99.31-.22.14-.42.31-.58.5-.01-.25-.03-.51-.05-.76.29-.06.55-.19.78-.38.42-.31.69-.65.61-.77-.08-.12-.5.03-.92.34-.19.13-.36.29-.51.47-.03-.28-.08-.56-.13-.84.26-.08.5-.23.69-.43.36-.32.58-.66.48-.77-.09-.1-.45.08-.81.4-.16.14-.31.31-.42.49-.06-.28-.13-.55-.2-.83.23-.1.43-.26.59-.45.3-.33.47-.66.38-.75-.09-.08-.41.11-.71.44-.14.14-.25.3-.34.48-.02-.07-.04-.14-.06-.22-.07-.2-.14-.4-.22-.6.19-.11.35-.27.48-.45.25-.32.37-.64.28-.71-.09-.07-.36.14-.61.46-.1.13-.19.28-.26.43-.1-.23-.2-.47-.32-.7.16-.13.29-.29.39-.47.18-.32.25-.62.16-.67-.09-.05-.31.17-.49.49-.08.13-.14.28-.18.43-.12-.23-.25-.45-.38-.67.13-.13.23-.29.29-.47.12-.31.15-.58.06-.61-.09-.03-.25.19-.37.49-.05.12-.09.26-.11.39-.13-.2-.27-.39-.41-.58.07-.03.16-.24.2-.49.05-.29.02-.53-.06-.54-.08-.01-.18.21-.23.5-.02.13-.03.27,0,.41-.06-.08-.13-.16-.19-.24,0-.12-.15-.35-.37-.57-.28-.28-.55-.44-.63-.36-.08.08.08.36.35.64.22.22.44.37.56.38.07.08.13.17.19.25-.14-.04-.28-.05-.41-.04-.29.01-.52.09-.52.17,0,.08.24.14.53.12.18,0,.35-.04.5-.13.15.21.29.41.42.64-.15-.04-.31-.06-.48-.05-.33,0-.59.09-.59.18,0,.09.28.16.6.15.19,0,.38-.03.55-.12.13.23.26.46.37.69-.16-.07-.33-.11-.5-.12-.36-.04-.67,0-.68.11-.01.1.28.22.64.26.21.04.43.02.63-.05.11.25.22.5.32.76-.16-.09-.34-.16-.52-.21-.39-.1-.74-.09-.76.02-.03.11.27.28.66.38.32.08.59.09.71.04.06.18.12.36.18.55.02.05.03.11.05.16-.16-.1-.33-.19-.51-.25-.41-.15-.79-.17-.83-.05-.04.12.27.33.68.48.23.1.49.14.74.12.07.28.14.56.19.85-.16-.12-.33-.22-.51-.31-.44-.2-.84-.27-.9-.15-.06.12.25.39.69.59.24.13.5.2.78.21.04.24.07.48.1.72-.16-.14-.33-.26-.51-.36-.44-.24-.86-.34-.93-.22-.07.12.24.42.68.67.24.15.51.25.8.28.02.23.03.47.04.7-.15-.16-.32-.29-.5-.4-.43-.28-.86-.4-.96-.28-.1.12.18.43.61.7.34.21.67.33.85.32,0,.25,0,.51-.01.76-.15-.19-.31-.35-.5-.49-.44-.35-.87-.53-.97-.4-.09.12.18.5.62.85.32.25.64.41.83.44-.02.22-.04.44-.06.65-.14-.21-.32-.39-.52-.55-.43-.35-.85-.54-.95-.43-.1.12.16.5.59.86.33.28.65.45.83.46-.03.18-.06.36-.09.54-.15-.22-.33-.41-.54-.57-.42-.33-.84-.51-.94-.39-.09.12.17.48.6.82.33.26.65.41.83.43-.04.21-.09.41-.15.62-.14-.22-.32-.42-.52-.58-.43-.37-.85-.57-.96-.45-.1.12.16.51.58.88.31.27.61.44.8.48-.06.19-.12.39-.19.57-.13-.26-.31-.49-.52-.68-.4-.39-.81-.61-.92-.5-.11.11.13.52.53.91.32.31.65.52.82.53-.06.16-.12.32-.19.48-.02.05-.04.1-.06.14-.12-.27-.29-.52-.51-.72-.39-.41-.81-.65-.92-.54-.11.11.11.53.5.94.31.32.63.54.81.56-.1.22-.21.44-.33.65-.1-.3-.26-.57-.47-.8-.37-.45-.77-.73-.89-.62-.13.1.07.55.44,1,.3.36.61.61.79.64-.12.2-.24.39-.37.58-.1-.29-.25-.56-.44-.8-.37-.48-.77-.78-.91-.68-.13.1.06.57.42,1.05.27.35.56.61.75.68-.14.2-.3.39-.45.57-.07-.32-.19-.62-.36-.89-.32-.53-.69-.9-.85-.81-.16.09-.01.6.31,1.13.24.4.52.71.7.79-.16.17-.32.33-.49.48-.03-.34-.13-.67-.3-.97-.28-.56-.64-.96-.79-.88-.16.08-.06.6.22,1.16.22.44.48.77.66.86-.04.03-.07.06-.11.1-.16.13-.33.25-.5.37.02-.22-.06-.61-.24-1.02-.25-.59-.58-1.01-.75-.94-.16.07-.1.61.15,1.2.19.45.43.81.61.92-.38.24-.79.44-1.21.59-.33.12-.68.21-1.03.26.02.07.03.14.04.21,0,.1-.02.2-.06.29.06.04.12.08.18.12.34.06.68.12.91.17l.17.03s.03,0,.04,0c.01,0,.03,0,.04-.02.01,0,.02-.02.03-.03,0-.01.01-.03.01-.04v-.1s0-.05,0-.07c-.01-.02-.04-.03-.06-.04l-.16-.03c-.2-.04-.49-.1-.78-.15.28-.06.56-.14.83-.23.48-.18.94-.41,1.37-.69.05.19.36.52.79.81.53.36,1.04.53,1.14.38.1-.15-.25-.55-.78-.92-.28-.2-.59-.35-.92-.43.15-.11.3-.22.45-.34l.11-.1c.09.19.41.46.85.7.56.31,1.09.43,1.18.28.09-.15-.3-.53-.86-.84-.29-.17-.6-.28-.93-.34.18-.17.36-.35.53-.53.06.17.44.42.95.6.59.21,1.11.25,1.17.08.06-.16-.37-.47-.95-.68-.42-.15-.81-.21-1.02-.17.19-.22.37-.45.54-.69.05.16.45.39.95.54.58.17,1.08.18,1.13.02.05-.16-.38-.43-.96-.61-.44-.14-.84-.17-1.03-.11.15-.22.3-.45.43-.68.14.15.5.32.95.41.59.14,1.11.12,1.14-.05.04-.17-.41-.41-1-.55-.31-.09-.63-.11-.95-.07.11-.21.22-.42.32-.63.15.13.52.26.97.33.6.09,1.11.02,1.12-.15.02-.17-.44-.37-1.04-.46-.31-.05-.63-.05-.93,0,.02-.05.04-.09.06-.14.07-.15.13-.31.19-.47.17.11.54.2.97.22.6.03,1.1-.08,1.11-.25,0-.17-.47-.33-1.07-.36-.3-.02-.6,0-.89.08.07-.2.13-.4.19-.61.15.1.55.15,1.01.12.58-.05,1.04-.21,1.03-.38-.01-.16-.49-.26-1.07-.21-.31.01-.61.09-.89.21.05-.2.1-.4.14-.61,0-.02,0-.04.01-.06.17.08.55.09.98.02.57-.09,1.01-.29.98-.45-.03-.16-.51-.21-1.08-.12Z"/>
        <path class="cls-2" d="M24.07,11.01s-.06-.02-.07-.05c-.02-.02-.03-.06-.02-.09,0-.03.02-.06.04-.08.02-.02.05-.03.08-.03.03,0,.06,0,.09-.02.03-.01.06-.03.08-.06.02-.02.04-.05.05-.08s.02-.06.02-.09c0-.03,0-.06-.02-.09-.01-.03-.03-.06-.06-.08-.02-.02-.05-.04-.08-.05-.03-.01-.06-.02-.09-.02-.02,0-.05,0-.07,0-.02,0-.04-.02-.06-.04-.01-.02-.02-.04-.02-.06,0-.03,0-.06.02-.09.02-.03.04-.04.07-.05.06-.02.11-.05.14-.1.03-.05.05-.11.04-.17,0-.06-.04-.11-.08-.15-.04-.04-.1-.06-.16-.06-.04,0-.08,0-.11.03l-.03.02s-.03.01-.05.02c-.02,0-.03,0-.05,0-.02,0-.04-.02-.05-.04-.01-.02-.02-.04-.02-.06,0-.03,0-.05.01-.08.01-.03.03-.05.06-.07.01-.01.03-.02.04-.04.01-.01.02-.03.03-.04.02-.03.02-.07.02-.1,0-.05-.01-.09-.04-.13-.02-.04-.06-.07-.1-.09-.04-.02-.09-.03-.13-.02-.05,0-.09.02-.13.05-.02.02-.04.04-.05.06-.01.03-.03.05-.05.07-.02.01-.05.02-.07.02-.03,0-.05-.01-.07-.03-.02-.02-.03-.04-.04-.06,0-.02,0-.05,0-.08.02-.04.03-.08.03-.12,0-.06-.02-.12-.06-.16-.04-.04-.1-.07-.16-.08s-.12.01-.17.05c-.05.04-.08.09-.1.15,0,.04-.01.07-.03.1-.01.02-.03.03-.05.04-.02,0-.04,0-.07,0-.02,0-.04-.02-.06-.03-.02-.02-.03-.04-.03-.06,0-.03,0-.06,0-.08,0-.04-.02-.08-.05-.12-.02-.03-.06-.06-.1-.08-.04-.02-.08-.02-.12-.02-.04,0-.08.02-.12.04h-.02s-.06.08-.08.13c0,.03,0,.07,0,.1,0,.03,0,.06-.01.09-.01.03-.04.05-.07.06-.03.01-.06,0-.09,0-.03-.01-.05-.04-.06-.07-.02-.06-.06-.12-.11-.15-.06-.03-.12-.04-.19-.03-.06.02-.12.06-.15.11-.03.06-.04.12-.03.19.01.03.02.07.02.1,0,.02,0,.04-.02.06,0,.02-.02.03-.04.04-.03.02-.06.02-.09.02-.02,0-.05-.02-.06-.03-.02-.02-.04-.05-.06-.07-.05-.05-.11-.07-.17-.07-.05,0-.1.02-.14.05s-.07.07-.09.12c-.02.05-.02.1,0,.15.02.05.05.09.09.12l-.1.03s-.04,0-.07,0c-.02,0-.04-.01-.06-.02-.02-.01-.04-.03-.05-.04-.01-.02-.02-.04-.03-.06-.03-.13-.06-.25-.08-.36-.01-.05-.01-.1,0-.15,0-.03.02-.05.03-.08.02-.03.04-.06.07-.09.1-.1.15-.23.15-.37,0-.09-.02-.18-.07-.26-.04-.08-.1-.15-.18-.2-.05-.03-.09-.08-.11-.13-.03-.05-.04-.11-.04-.17v-.24h.11c.1,0,.2.02.28.06.09.04.16.11.22.19v-.8c-.06.08-.14.15-.23.19-.09.04-.19.06-.29.06h-.09v-.12c0-.1.01-.2.06-.29.04-.09.11-.17.19-.23h-.8c.08.06.14.13.19.22.04.09.06.19.06.28v.14h-.09c-.1,0-.2-.01-.29-.06-.09-.04-.17-.11-.23-.19v.8c.06-.08.13-.14.22-.19.09-.04.19-.06.28-.06h.11v.24c0,.06-.01.12-.04.17-.03.05-.07.1-.12.13-.07.05-.13.11-.17.18-.04.07-.07.15-.07.23,0,.08,0,.16.03.24.03.08.07.15.13.2.04.04.06.08.08.13.01.05.01.1,0,.16-.02.1-.05.23-.08.36,0,.02-.01.04-.03.06-.01.02-.03.03-.05.04-.02.01-.04.02-.06.02-.02,0-.04,0-.07,0l-.1-.03s.07-.07.09-.12c.02-.05.01-.1,0-.15-.02-.05-.05-.09-.09-.12-.04-.03-.09-.05-.14-.05-.06,0-.13.03-.17.07-.02.02-.04.05-.06.07-.02.02-.04.03-.06.03-.03,0-.06,0-.09-.02-.02-.01-.03-.02-.04-.04,0-.02-.02-.04-.02-.06,0-.03.01-.07.02-.1.02-.06,0-.13-.03-.19-.03-.06-.09-.1-.15-.11-.06-.02-.13,0-.19.03-.06.03-.1.09-.11.15-.01.03-.03.06-.06.07-.03.01-.06.02-.09,0-.02,0-.04-.02-.06-.04-.01-.02-.02-.04-.02-.07,0-.03,0-.05,0-.08,0-.03,0-.07-.02-.1-.01-.03-.04-.06-.06-.08h-.02s-.07-.05-.11-.06c-.04,0-.08,0-.12.02-.04.02-.07.04-.1.07-.03.03-.04.07-.05.11,0,.03,0,.06,0,.08,0,.02-.02.04-.03.06-.02.02-.04.03-.06.03-.02,0-.04,0-.07,0-.02,0-.04-.02-.05-.04-.02-.03-.03-.06-.03-.1-.01-.06-.05-.11-.1-.15s-.11-.05-.17-.05c-.06,0-.12.03-.16.08-.04.04-.06.1-.06.16,0,.04.01.08.03.12,0,.02.01.05,0,.08,0,.02-.02.05-.04.06-.02.02-.04.03-.07.03-.03,0-.05,0-.07-.02-.02-.02-.04-.04-.05-.07-.01-.02-.03-.04-.05-.06-.04-.03-.08-.05-.13-.05-.05,0-.09,0-.13.02s-.08.05-.1.09c-.02.04-.04.08-.04.13,0,.03,0,.07.02.1,0,.02.02.03.03.04.01.01.02.03.03.04.02.02.04.04.06.07.01.02.02.05.01.08,0,.02-.01.04-.02.06-.01.02-.03.03-.05.04-.02,0-.03,0-.05,0-.02,0-.03,0-.05-.02l-.03-.02s-.07-.03-.11-.03c-.06,0-.12.02-.16.06-.04.04-.07.09-.08.15s0,.12.04.17c.03.05.08.09.14.1.03,0,.06.03.07.05.02.03.02.06.02.09,0,.02-.01.04-.02.06-.02.02-.04.03-.06.04-.02,0-.05,0-.07,0-.03,0-.06,0-.09.02-.03.01-.06.03-.08.05-.02.02-.04.05-.06.08-.01.03-.02.06-.02.09,0,.03,0,.06.02.09.01.03.03.06.05.08.02.02.05.04.08.06s.06.02.09.02c.03,0,.06.01.08.03s.04.05.04.08c0,.03,0,.06-.02.09-.02.03-.04.04-.07.05-.06.01-.11.05-.15.09-.04.05-.05.11-.05.17,0,.06.03.12.08.16s.1.06.16.07c.04,0,.08,0,.12.01.01,0,.03.02.04.03.01.01.02.03.02.04.01.03,0,.06,0,.09-.01.03-.03.05-.06.06-.05.02-.1.06-.13.11-.03.05-.04.11-.03.17s.04.11.08.15c.04.04.1.06.16.06.03,0,.06,0,.09-.02.03-.01.06-.01.09,0,.03.01.05.03.07.06.01.03.02.06,0,.09,0,.03-.03.05-.05.07-.05.02-.09.06-.12.11-.03.05-.03.11-.02.16.01.05.04.1.09.14.04.04.1.05.15.05.03,0,.06,0,.08-.02.02,0,.04,0,.07,0,.04,0,.08.01.11.03s.06.05.08.08c.02.03.03.07.03.11s-.01.08-.04.11c-.03.04-.05.09-.06.14-.01.05-.01.1,0,.15,0,.05.03.1.06.14.03.04.06.08.11.11.07.05.14.07.23.07h.02s.01,0,.02,0c0,0,.01,0,.02.01,0,0,0,.01.01.02,0,0,0,.02,0,.02,0,0,0,.02-.01.02-.01,0-.02.02-.04.02-.03.02-.05.05-.06.09,0,.04,0,.08.02.11.01.02.03.04.05.05.02.01.05.02.07.02.03,0,.06,0,.08-.02.8-.53,1.74-.81,2.7-.82h.02c.96,0,1.9.3,2.71.83.02.02.05.02.08.02.03,0,.05,0,.07-.02.02-.01.04-.03.05-.05.02-.03.03-.07.02-.11,0-.04-.03-.07-.06-.09-.01,0-.03-.02-.04-.02,0,0-.01-.02-.01-.02,0,0,0-.02,0-.02,0,0,0-.01.01-.02,0,0,.01,0,.02-.01s.01,0,.02,0h.02c.08,0,.16-.02.23-.07.04-.03.08-.07.11-.11.03-.04.05-.09.06-.14,0-.05,0-.1,0-.15-.01-.05-.03-.1-.06-.14-.02-.03-.03-.07-.04-.11s0-.08.03-.11c.02-.03.05-.06.08-.08.03-.02.07-.03.11-.03.02,0,.04,0,.07,0,.03,0,.05.01.08.02.06,0,.11-.02.15-.05.04-.04.07-.08.09-.14.01-.05,0-.11-.02-.16-.03-.05-.07-.09-.12-.11-.03-.02-.04-.04-.05-.07,0-.03,0-.06,0-.09.01-.03.04-.05.07-.06.03-.01.06,0,.09,0,.03.01.06.02.09.02.06,0,.11-.02.16-.06.04-.04.07-.09.08-.15,0-.06,0-.12-.03-.17-.03-.05-.08-.09-.13-.11-.03-.01-.05-.03-.06-.06-.01-.03-.01-.06,0-.09,0-.02.01-.03.02-.04.01-.01.02-.02.04-.03.04-.01.08-.01.12-.01.06,0,.12-.02.16-.07.04-.04.07-.1.08-.16,0-.06-.01-.12-.05-.17-.04-.05-.09-.08-.15-.09h0ZM19.67,8.36c0-.06.02-.12.05-.17.03-.05.08-.09.13-.11.05-.02.12-.03.17-.02.06.01.11.04.15.08.04.04.07.1.08.15.01.06,0,.12-.02.17-.02.05-.06.1-.11.13s-.11.05-.17.05c-.08,0-.15-.03-.21-.09-.06-.06-.09-.13-.09-.21h0ZM19.97,9.23c.1.43.25,1.05.31,1.29-.12.08-.22.19-.31.31-.08-.12-.19-.22-.31-.31.06-.25.21-.87.31-1.29h0ZM16.7,12.46c-.41-.76-.59-1.47-.51-2.11.03-.3.15-.58.35-.81.17-.18.39-.31.64-.36.48-.1.99-.03,1.43.19.08.04.16.08.23.13.12.07.24.13.36.19.1.04.2.06.31.08-.11.45-.2.84-.2.84l-.03.13h0c.11.04.22.11.3.19.09.09.15.19.19.3.01.03.02.06.03.09,0,.03.02.06.02.1-.05-.14-.13-.27-.25-.36-.12-.09-.26-.15-.4-.17-.15-.02-.3.01-.43.08-.13.07-.24.17-.32.3,0-.09,0-.17,0-.26-.02-.23-.11-.45-.24-.63s-.31-.34-.52-.43c-.14.23-.21.5-.2.77.02.27.12.53.29.75-.14-.07-.3-.09-.46-.07-.16.02-.3.09-.41.2-.11.11-.19.25-.23.4-.03.15-.02.31.04.46h0ZM17.42,12.95c-.14,0-.28-.04-.4-.11-.12-.07-.22-.18-.29-.3.44-.28.91-.5,1.41-.66.05.12.07.25.06.38-.01.13-.06.25-.13.36-.07.11-.17.2-.28.26-.11.06-.24.09-.37.09h0ZM18.63,13.28l-.51-.28.28-.51.51.28-.28.51ZM18.32,11.81c.5-.15,1.02-.23,1.54-.24,0,.04.01.07.01.11,0,.2-.07.39-.2.54-.13.15-.31.24-.51.26-.2.02-.39-.04-.55-.16-.16-.12-.26-.3-.29-.49h0ZM19.98,13.1c-.07,0-.14-.02-.2-.06-.06-.04-.11-.1-.14-.16-.03-.07-.04-.14-.02-.21.01-.07.05-.14.1-.19.05-.05.12-.09.19-.1.07-.01.14,0,.21.02.07.03.12.08.16.14.04.06.06.13.06.2,0,.05,0,.1-.03.14-.02.04-.05.08-.08.12-.03.03-.07.06-.12.08-.04.02-.09.03-.14.03h0ZM20.08,11.68s0-.07,0-.11c.52.01,1.04.09,1.54.24-.03.2-.13.37-.29.49-.16.12-.35.18-.55.16-.2-.02-.38-.11-.51-.26-.13-.15-.2-.34-.2-.54h0ZM21.3,13.28l-.28-.51.51-.28.28.51-.51.28ZM22.54,12.95c-.13,0-.26-.03-.37-.09-.11-.06-.21-.15-.28-.26-.07-.11-.11-.23-.13-.36-.01-.13,0-.26.06-.38.49.16.97.39,1.41.66-.07.13-.17.23-.29.31-.12.07-.26.11-.41.11h0ZM23.26,12.46c.05-.12.07-.25.05-.37-.01-.13-.06-.25-.13-.36-.07-.11-.17-.19-.28-.25-.11-.06-.24-.09-.37-.09-.12,0-.23.03-.33.08.17-.21.27-.47.29-.75.02-.27-.05-.54-.2-.77-.21.1-.39.25-.52.43-.13.19-.22.41-.24.63,0,.09,0,.17,0,.26-.08-.13-.19-.23-.32-.3-.13-.07-.28-.09-.43-.08-.15.02-.29.07-.4.17-.12.09-.2.22-.25.36,0-.03.01-.06.02-.1,0-.03.02-.06.03-.09.04-.11.11-.22.19-.3.09-.09.19-.15.3-.19h0l-.03-.13s-.09-.39-.2-.84c.1-.02.21-.05.31-.08.13-.05.25-.11.36-.19.08-.05.15-.09.23-.13.44-.22.94-.29,1.43-.19.24.05.47.18.64.36.2.23.32.51.35.81.08.64-.1,1.34-.52,2.11h0Z"/>
      </g>
    </g>
  </g>
</svg>