<?xml version="1.0" encoding="UTF-8"?>
<svg id="Layer_2" data-name="Layer 2" xmlns="http://www.w3.org/2000/svg" viewBox="0 0 211.79 276.62">
  <defs>
    <style>
      .cls-1 {
        fill: #7bffbd;
      }
    </style>
  </defs>
  <g id="Layer_1-2" data-name="Layer 1">
    <g>
      <path class="cls-1" d="M48.94,129.81c-1.74-.66-3.44-1.31-5.14-.55l-.09.09c-.19.21-.05.61.03.88.66,1.97,1.33,4.02,2.21,6.61.86,2.79,2.08-2.65,2.51-3.19.25-1.18,1.9-3.02.48-3.84Z"/>
      <path class="cls-1" d="M150.98,192.03l-.21-.08c-3.96-1.72-5.77,2.46-7.15,5.34-1.95,3.87-4.21,7.67-6.41,11.59-.78,1.32-.95,2.68,1.01,2.29,6.04-1.28,12.55-5.93,15.25-10.6,1.99-3.21,1.38-7.19-2.48-8.54Z"/>
      <path class="cls-1" d="M130.52,181.66c-16.59-8.81-34.18-15.97-50.3-25.62-5.86-4.04-10.74-9.48-15.58-15.65-1.22-1.62-3.22-2.84-4.92-1.38-2.04,1.71-3.37,4.59-4.34,7.11-1.7,4.57-3.33,9.3-4.59,14.02-1.42,3.8.34,7.52.62,11.33-.06,2.98-2.24,5.43-2.65,8.36-.72,13.12,3.04,26.05,10.09,36.89,19.85,29.69,40.55,11.45,62.89-3.51l.17-.13c3.22-2.55,5.99-6.1,7.61-10.11,1.44-3.53,1.91-7.46,3.1-11.1,1.44-4.43,2.99-7.64-2.1-10.22ZM67.86,167.68c5.7-6.36,15.66-2.37,9.63,5.46l-.15.2c-1.9,2.48-5.36,4.53-8.19,2.7-2.46-1.73-3.44-6.03-1.3-8.36ZM69.28,206.95l-.15-.15c-1.97-2.24-6.67-11.65-1.48-11.88,2.04.3,3.51,2.62,4.95,4.02,3.06,3.24,6.53,4.21,11.05,3.18,4.27-.5,9.75-5.52,13.66-2.39.61.64.9,1.56.81,2.49-1.81,8.97-22.47,10.4-28.84,4.73ZM109.83,190.44c-2.46,2.5-8.27,2.97-10.83.65l-.07-.14c-.38-1.23.02-3.09.88-4.25,2.02-2.16,6.32-3.78,9.17-2.36,1.45,1.07,2.28,4.54.86,6.1Z"/>
      <path class="cls-1" d="M30.87,145.7l.04.21c.88,4.57,3.73,8.92,7.02,12.32,1.93,1.86,4.26,4.89,5.12,1.9.94-6.57,1.71-13.13-.61-19.1-5.05-12.51-13.45-6.4-11.57,4.67Z"/>
      <path class="cls-1" d="M171.97,8.95c-18.55-6.42-35.53-15.04-61.41-2.67-34.21,16.34-43.88,41.26-66.95,56.66C21.02,78.02-1.87,98,.12,133.06c4.31,75.69,31.48,164.36,103,139.2,51.46-18.1,90.54-52.49,93.57-100.87.5-7.91.54-16.34,3.85-23.66,6.63-14.67,9.31-32.33,10.62-45.73,4.43-45.23-15.51-84.87-39.2-93.06ZM184.51,103.69c.07,8.05-2.54,15.79-6.73,22.62-3.04,4.75-6.41,9.11-6.12,14.89-.06,11.23-.9,22.33-4.83,32.88-1.29,4.91-4.31,8.86-6.09,13.51-.54,1.9-.24,3.9.26,5.79,1.75,6.25.37,11.59-5,16.92-4.79,4.76-10.82,8.06-16.87,10.85-4.02,1.79-8.28,1.8-12.54,1.98l-.19.02c-4.49.62-8.37,4.01-12.32,6.09-9.94,5.61-20.06,12.41-31.88,12.36-5.97,0-11.57-3.73-16.98-5.88-1.78-.84-2.99-1.68-4.41-3.05-11.43-10.86-17.59-25.41-20.41-40.77-.76-3.06-1.76-5.56-1.67-8.47.01-2.63,1.06-5.77,1.32-8.35.44-3.15-1.62-5.56-3.57-7.78-9.01-10.11-21.98-23.11-9.87-36,1.16-1.12,2.51-2.04,3.99-2.69,2.74-1.26,6.05-1.01,7.76-3.15,1.8-2.52,1.93-5.97,3.04-8.85,4.21-12.75,10.96-27.63,24.7-32.16,3.85-1.25,8.24.19,12.21.47,2.38.09,4.28-1.46,5.68-3.34,3.57-4.81,6.92-9.78,10.41-14.65,12.26-16.26,25.16-42.26,49.42-38.18,4.15.9,8.07,3,11.48,6.17,2.32,2.28,4.46,4.26,7.44,5.04,4.29,1.24,8.94,1.66,13.22,3.09,5.1,1.48,7.14,6.68,7.1,11.61.8,16.34,1.65,32.68,1.45,49.01Z"/>
      <path class="cls-1" d="M157.04,129.57c-4.64-3.89-10.79-5.28-16.56-7.05-17.34-5.36-36.11-7.47-50.77-18.73-7.08-5.64-15.8-15.56-25.56-10.48-8.26,4.66-13.19,13.42-16.3,21.96-1.7,4.61,2.66,6.03,6.6,7.72,3.44,1.55,7.31,3.82,9.23-.98,3.01-6.9,6.09-13.9,11-19.69.87-.89,2.58-3.04,3.75-2.06,1.02,2.47-1.88,7.95-2.65,10.87-3.35,9.88-8.41,17.85-1.39,27.66,3.48,5.2,8.74,9.61,14.23,12.71,13.19,7.26,26.91,13.84,40.62,20.15,3.01,1.2,6.55.61,9.28,1.92,2.31,1.15,4.2,3.41,6.66,4.72,2.19,1.18,4.99,2.14,7.17,1.88l.19-.03c4.48-.66,6.22-6.52,7.16-10.68,1.18-4.73,2.2-9.5,3.37-14.24,1.6-5.25,2.48-10.73-.71-15.55-2.11-3.41-2.45-7.6-5.32-10.1ZM103.75,122.36c-1.08,5-2.33,10.11-3.23,15.1-.66,2.58-.2,5.58-1.4,7.96-1.18,1.95-4.31,1.43-5.83.11-2.04-1.7-2.06-4.65-1.6-7.08,1.27-6.03,4.77-12.4,9.03-17.45.78-.77,2.09-2.14,2.95-1.35l.06.09c.35.57.18,1.82,0,2.62ZM132.39,136.54c-1.85,7.58-2.83,15.6-5.55,22.92-3.64,6.04-7.65,1.36-6.59-3.94,1.19-7.3,4.07-14.02,8.26-20.03.79-1.08,2.51-3.18,3.74-2.04l.14.23c.35.71.2,1.97,0,2.87Z"/>
      <path class="cls-1" d="M176.23,56.66c-.27-2.31-.25-4.59-2.48-5.51-1.03-.4-2.19-.41-3.27-.65-2.3-.48-4.85-2.47-7.69-2.64-6.25.02-7.69-.07-11.32-5.65-8.76-12.7-23.02-6.16-31.69,2.75-9.63,10.56-17.61,22.63-26.51,33.77l-.14.17c-9.43,11.34-11.1,9.3,1.68,18.99,10.07,7.37,22.58,9.91,34.43,13.35,11.58,3.24,23.59,5.27,33.49,12.99,5.32,4.87,7.56.13,9.96-4.47,7.65-14.96,5.04-32.29,4.41-48.5-.29-4.83-.52-9.8-.86-14.6Z"/>
    </g>
  </g>
</svg>